<svg xmlns="http://www.w3.org/2000/svg" width="84.81" height="101.32" viewBox="0 0 84.81 101.32">
  <g id="Grupo_12506" data-name="Grupo 12506" transform="translate(-2477.562 -2494.044)">
    <g id="Grupo_801" data-name="Grupo 801" transform="translate(-96.762 -139.404)">
      <path id="Caminho_3649" data-name="Caminho 3649" d="M3294.845,1765.191v6.15h-60.56v-6.15a19.713,19.713,0,0,1,13.53-18.709,19.745,19.745,0,0,0,33.51,0,19.428,19.428,0,0,1,5.689,2.989v.011a19.971,19.971,0,0,1,3.181,3.009,19.472,19.472,0,0,1,3.609,6.37A19.717,19.717,0,0,1,3294.845,1765.191Z" transform="translate(-650.797 963.427)" fill="#e24c5d"/>
      <path id="Caminho_3650" data-name="Caminho 3650" d="M3244.915,1727.2a19.635,19.635,0,0,0,23.03-10.81,19.728,19.728,0,0,0,16.31,11.42c.009.31.049.62.049.94v7.311a19.734,19.734,0,0,1-39.469,0v-7.311C3244.835,1728.221,3244.875,1727.711,3244.915,1727.2Z" transform="translate(-650.797 963.427)" fill="#daf1f3"/>
      <path id="Caminho_3651" data-name="Caminho 3651" d="M3269.684,1709.711a19.721,19.721,0,0,1,14.571,18.1,19.728,19.728,0,0,1-16.31-11.42A19.648,19.648,0,0,0,3269.684,1709.711Z" transform="translate(-650.797 963.427)" fill="#323954"/>
      <path id="Caminho_3652" data-name="Caminho 3652" d="M3266.184,1709.1a19.252,19.252,0,0,1,3.5.61,19.662,19.662,0,0,1-24.769,17.49,19.718,19.718,0,0,1,19.65-18.18C3265.115,1709.021,3265.645,1709.051,3266.184,1709.1Z" transform="translate(-650.797 963.427)" fill="#40566b"/>
      <rect id="Ret창ngulo_1823" data-name="Ret창ngulo 1823" width="6.05" height="3" transform="translate(2603.809 2695.728)" fill="#40566b"/>
      <rect id="Ret창ngulo_1824" data-name="Ret창ngulo 1824" width="6.05" height="3" transform="translate(2618.118 2695.728)" fill="#40566b"/>
      <path id="Caminho_3653" data-name="Caminho 3653" d="M3264.485,1747.812a8.886,8.886,0,0,1-4.608-1.288l1.556-2.565a5.9,5.9,0,0,0,7.511-1.183l2.262,1.97A8.919,8.919,0,0,1,3264.485,1747.812Z" transform="translate(-650.797 963.427)" fill="#40566b"/>
    </g>
    <path id="Caminho_2005" data-name="Caminho 2005" d="M4786.745-3148.136l-7.95,8.99h-6.34l-3.09-3.99-3.09,3.99h-4.7l-3.09-3.99-3.09,3.99h-4.69l-3.09-3.99-3.09,3.99h-8.05a17.815,17.815,0,0,1-16.72,11.69,17.824,17.824,0,0,1-17.82-17.829,17.822,17.822,0,0,1,17.82-17.821,17.815,17.815,0,0,1,16.72,11.69h42.32Zm-67.15,2.851a4.2,4.2,0,0,0-4.19-4.191,4.189,4.189,0,0,0-4.19,4.191,4.189,4.189,0,0,0,4.19,4.189A4.189,4.189,0,0,0,4719.6-3145.285Z" transform="translate(-2224.373 5657.15)" fill="#f6cf76"/>
  </g>
</svg>
