<svg xmlns="http://www.w3.org/2000/svg" width="109.11" height="109.11" viewBox="0 0 109.11 109.11">
  <g id="Grupo_12508" data-name="Grupo 12508" transform="translate(-2594 -2412)">
    <path id="Caminho_3643" data-name="Caminho 3643" d="M3839.855,2082.891v15.91a3.918,3.918,0,0,1-3.9,3.9h-6.64a45.511,45.511,0,0,1-4.341,11.06l4.521,4.52a3.9,3.9,0,0,1,0,5.51l-11.25,11.26a3.917,3.917,0,0,1-5.51,0l-4.261-4.27a44.965,44.965,0,0,1-11.329,4.8v5.92a3.9,3.9,0,0,1-3.89,3.9h-15.92a3.9,3.9,0,0,1-3.89-3.9v-5.92a44.971,44.971,0,0,1-11.33-4.8l-4.26,4.27a3.917,3.917,0,0,1-5.51,0l-11.25-11.26a3.9,3.9,0,0,1,0-5.51l4.52-4.52a45.519,45.519,0,0,1-4.34-11.06h-6.64a3.909,3.909,0,0,1-3.89-3.9v-15.91a3.9,3.9,0,0,1,3.89-3.9h7.169a45.018,45.018,0,0,1,4.531-10.35l-5.24-5.23a3.911,3.911,0,0,1,0-5.52l11.25-11.25a3.917,3.917,0,0,1,5.51,0l5.5,5.5a45.18,45.18,0,0,1,10.09-4.08v-7.87a3.9,3.9,0,0,1,3.89-3.9h15.92a3.9,3.9,0,0,1,3.89,3.9v7.87a45.184,45.184,0,0,1,10.09,4.08l5.5-5.5a3.917,3.917,0,0,1,5.51,0l11.25,11.25a3.9,3.9,0,0,1,0,5.51l-5.231,5.24a45.318,45.318,0,0,1,4.521,10.35h7.17A3.918,3.918,0,0,1,3839.855,2082.891Zm-17.96,8.27a36.605,36.605,0,1,0-36.6,36.61A36.6,36.6,0,0,0,3821.9,2091.161Z" transform="translate(-1136.745 375.709)" fill="#40566b"/>
    <g id="Grupo_203" data-name="Grupo 203" transform="translate(-2390.06 5026.168)">
      <path id="Caminho_1234" data-name="Caminho 1234" d="M5034.9-2544.679a18.7,18.7,0,0,1-15.871-8.807,18.606,18.606,0,0,1-2.815-9.878v-6.924c0-.49.038-.968.074-1.457a18.687,18.687,0,0,0,4.84.653,18.678,18.678,0,0,0,16.977-10.895,18.633,18.633,0,0,0,15.432,10.82c.013.29.051.578.051.879v6.924a18.619,18.619,0,0,1-2.815,9.878A18.7,18.7,0,0,1,5034.9-2544.679Z" transform="translate(3.888 3.896)" fill="#d2edef"/>
      <path id="Caminho_1235" data-name="Caminho 1235" d="M5035.266-2587.017a18.654,18.654,0,0,1,13.8,17.139,18.632,18.632,0,0,1-15.432-10.82A18.343,18.343,0,0,0,5035.266-2587.017Z" transform="translate(8.358 2.605)" fill="#323954"/>
      <path id="Caminho_1236" data-name="Caminho 1236" d="M5039.72-2586.884a18.331,18.331,0,0,1-1.634,6.32,18.678,18.678,0,0,1-16.977,10.9,18.7,18.7,0,0,1-4.84-.653,18.672,18.672,0,0,1,18.612-17.217c.516,0,1.018.038,1.521.077A17.78,17.78,0,0,1,5039.72-2586.884Z" transform="translate(3.904 2.472)" fill="#40566b"/>
      <path id="Caminho_1237" data-name="Caminho 1237" d="M5021.028-2559.307a18.7,18.7,0,0,0,15.871,8.808,18.7,18.7,0,0,0,15.872-8.808,18.664,18.664,0,0,1,12.59,14.9c-.1.127-.2.239-.313.365-.164.177-.326.364-.5.542-.264.3-.553.6-.856.892l-.376.376c-.314.327-.653.628-.979.943q-1.376,1.246-2.865,2.363c-.969.717-1.973,1.4-3,2.024-.363.225-.714.426-1.079.628-.2.125-.415.238-.629.351-.29.151-.578.3-.868.441a9.324,9.324,0,0,1-.866.426c-.465.226-.93.44-1.408.628-.691.314-1.408.59-2.136.842-.354.125-.7.24-1.056.353a4.29,4.29,0,0,1-.5.151c-.526.175-1.054.325-1.595.451-.552.151-1.106.276-1.671.39-.163.037-.326.074-.49.1-.5.1-1.007.187-1.521.264l-.513.074c-.415.063-.831.113-1.246.163a2.2,2.2,0,0,0-.3.027c-.516.05-1.042.087-1.57.112a3.58,3.58,0,0,1-.365.012c-.578.038-1.157.05-1.747.05s-1.181-.013-1.772-.05c-.49-.012-.979-.05-1.47-.088-.327-.025-.655-.063-.98-.1-.051,0-.1-.012-.152-.012-.415-.051-.83-.1-1.244-.176-.564-.075-1.118-.162-1.671-.289-.338-.063-.666-.137-1.006-.213a9.14,9.14,0,0,1-.993-.237q-.488-.134-.979-.264c-.892-.253-1.784-.542-2.652-.868a38.024,38.024,0,0,1-15.569-10.832A18.829,18.829,0,0,1,5021.028-2559.307Z" transform="translate(1.887 9.716)" fill="#e24c5d"/>
      <path id="Caminho_1238" data-name="Caminho 1238" d="M5025.486-2537.654a9.1,9.1,0,0,1-1.006-.213C5024.82-2537.792,5025.147-2537.717,5025.486-2537.654Z" transform="translate(6.011 15.219)" fill="#00c0b7"/>
      <path id="Caminho_1239" data-name="Caminho 1239" d="M5023.89-2538a7.5,7.5,0,0,1-.979-.264C5023.238-2538.18,5023.565-2538.092,5023.89-2538Z" transform="translate(5.608 15.116)" fill="#00c0b7"/>
      <path id="Caminho_1240" data-name="Caminho 1240" d="M5020.1-2559.469a18.615,18.615,0,0,0,2.815,9.878,18.827,18.827,0,0,0-12.617,14.74,38.016,38.016,0,0,0,15.569,10.832,37.672,37.672,0,0,1-24.807-35.423,37.726,37.726,0,0,1,37.726-37.726,37.723,37.723,0,0,1,37.723,37.726,37.58,37.58,0,0,1-9.261,24.754,18.667,18.667,0,0,0-12.591-14.9,18.615,18.615,0,0,0,2.815-9.878v-6.924c0-.3-.038-.59-.051-.879a18.653,18.653,0,0,0-13.8-17.14,17.761,17.761,0,0,0-3.318-.578c-.5-.039-1-.077-1.521-.077a18.671,18.671,0,0,0-18.612,17.216c-.036.49-.074.968-.074,1.458Z" transform="translate(0)" fill="#00c0b7"/>
      <path id="Caminho_1241" data-name="Caminho 1241" d="M5029.558-2567.344h-5.73a1.256,1.256,0,0,1-1.257-1.257,1.256,1.256,0,0,1,1.257-1.257h5.73a1.256,1.256,0,0,1,1.257,1.257A1.257,1.257,0,0,1,5029.558-2567.344Z" transform="translate(5.521 7.009)" fill="#40566b"/>
      <path id="Caminho_1242" data-name="Caminho 1242" d="M5040.35-2567.344h-5.744a1.256,1.256,0,0,1-1.256-1.257,1.256,1.256,0,0,1,1.256-1.257h5.744a1.256,1.256,0,0,1,1.258,1.257A1.256,1.256,0,0,1,5040.35-2567.344Z" transform="translate(8.287 7.009)" fill="#40566b"/>
      <path id="Caminho_1243" data-name="Caminho 1243" d="M5032.018-2557.428a8.238,8.238,0,0,1-4.282-1.2,1.255,1.255,0,0,1-.422-1.725,1.255,1.255,0,0,1,1.725-.422,5.759,5.759,0,0,0,2.979.836,5.729,5.729,0,0,0,4.34-1.99,1.255,1.255,0,0,1,1.772-.131,1.254,1.254,0,0,1,.129,1.772A8.238,8.238,0,0,1,5032.018-2557.428Z" transform="translate(6.69 8.931)" fill="#40566b"/>
    </g>
  </g>
</svg>
