<svg xmlns="http://www.w3.org/2000/svg" width="24.411" height="24" viewBox="0 0 24.411 24">
  <g id="Grupo_12441" data-name="Grupo 12441" transform="translate(-13 -19)">
    <g id="App_Icon_Atom" transform="translate(13 19)">
      <path id="Caminho_8841" data-name="Caminho 8841" d="M0,0H1V1H0Z" fill="none"/>
    </g>
    <g id="Side_Panel_Icon" data-name="Side Panel Icon" transform="translate(13 19.246)">
      <rect id="Retângulo_11746" data-name="Retângulo 11746" width="24.411" height="23.754" fill="none"/>
      <g id="Grupo_9844" data-name="Grupo 9844">
        <g id="Grupo_9844-2" data-name="Grupo 9844">
          <path id="Caminho_8823" data-name="Caminho 8823" d="M4865.6-1153.447h-13.934v11.589l5.833,4.863,2.921,2.436,2.921-2.436.323-.268,5.449-4.542v-8.128Z" transform="translate(-4848.714 1153.447)" fill="#d2edef"/>
          <path id="Caminho_8824" data-name="Caminho 8824" d="M4916.04-1149.932h-3.515v-3.514Z" transform="translate(-4895.64 1153.447)" fill="#40566b"/>
          <path id="Caminho_8825" data-name="Caminho 8825" d="M4841.727-1124.317v4.92l-2.951-2.459Z" transform="translate(-4838.775 1130.986)" fill="#40566b"/>
          <path id="Caminho_8826" data-name="Caminho 8826" d="M4930.886-1122.026l-3.011,2.512v-5.023Z" transform="translate(-4907.476 1131.156)" fill="#40566b"/>
          <path id="Caminho_8827" data-name="Caminho 8827" d="M4847.556-1106.148l-8.78,7.3v-14.6Z" transform="translate(-4838.775 1122.605)" fill="#fea856"/>
          <path id="Caminho_8828" data-name="Caminho 8828" d="M4911.447-1098.859l-8.783-7.3.323-.268,8.46-7.029Z" transform="translate(-4888.037 1122.613)" fill="#fea856"/>
          <path id="Caminho_8829" data-name="Caminho 8829" d="M4847.56-1081.587l2.921,2.436,2.922-2.436,8.783,7.3h-23.411l8.78-7.3Z" transform="translate(-4838.775 1098.04)" fill="#f6cf76"/>
        </g>
        <g id="Grupo_9845" data-name="Grupo 9845" transform="translate(6.616 2.345)">
          <path id="Caminho_8831" data-name="Caminho 8831" d="M1954.458,139.194c0,.059.008.116.008.173v1.364a3.637,3.637,0,0,1-.556,1.943,3.68,3.68,0,0,1-6.8-1.943v-1.364c0-.1.005-.191.013-.287a3.619,3.619,0,0,0,.954.129,3.451,3.451,0,0,1,6.385-.015Z" transform="translate(-1945.696 -135.688)" fill="#fff"/>
          <path id="Caminho_8832" data-name="Caminho 8832" d="M1949.861,158.775c1.465.486,1.964,1.863,1.964,3.493h-10.178c0-1.63.5-3.008,1.967-3.493a3.679,3.679,0,0,0,6.248,0Z" transform="translate(-1941.647 -151.788)" fill="#00c0b7"/>
          <path id="Caminho_8833" data-name="Caminho 8833" d="M1964.11,132.235a3.681,3.681,0,0,1,2.719,3.377,3.675,3.675,0,0,1-3.042-2.129A3.665,3.665,0,0,0,1964.11,132.235Z" transform="translate(-1958.066 -132.106)" fill="#323954"/>
          <path id="Caminho_8834" data-name="Caminho 8834" d="M1951.777,131.864a3.676,3.676,0,0,1-3.667,3.392,3.619,3.619,0,0,1-.953-.129,3.68,3.68,0,0,1,3.667-3.392c.1,0,.2.008.3.016A3.625,3.625,0,0,1,1951.777,131.864Z" transform="translate(-1945.733 -131.735)" fill="#40566b"/>
          <path id="Caminho_8835" data-name="Caminho 8835" d="M1954.1,149.011h-1.181a.258.258,0,1,1,0-.517h1.181a.258.258,0,0,1,0,.517Z" transform="translate(-1949.812 -144.164)" fill="#40566b"/>
          <path id="Caminho_8836" data-name="Caminho 8836" d="M1964.9,149.011h-1.181a.258.258,0,0,1,0-.517h1.181a.258.258,0,1,1,0,.517Z" transform="translate(-1957.821 -144.164)" fill="#40566b"/>
          <path id="Caminho_8837" data-name="Caminho 8837" d="M1958.232,157.02a1.71,1.71,0,0,1-.879-.246.258.258,0,1,1,.266-.443,1.2,1.2,0,0,0,1.509-.237.258.258,0,1,1,.391.338A1.7,1.7,0,0,1,1958.232,157.02Z" transform="translate(-1953.201 -149.734)" fill="#40566b"/>
        </g>
      </g>
    </g>
  </g>
</svg>
