<svg xmlns="http://www.w3.org/2000/svg" width="95.04" height="102.41" viewBox="0 0 95.04 102.41">
  <g id="Grupo_12507" data-name="Grupo 12507" transform="translate(-2224.768 -588.235)">
    <path id="Caminho_4722" data-name="Caminho 4722" d="M2319.808,598.695v91.95h-84.58v-10.46h74.119v-81.49Z" fill="#40566b"/>
    <path id="Caminho_4723" data-name="Caminho 4723" d="M2309.347,598.695v-10.46h-84.579v91.95h84.579Z" fill="#daf1f3"/>
    <path id="Caminho_4724" data-name="Caminho 4724" d="M2238.927,664.244h-5.6V596.8h67.45v67.449h-61.851Z" fill="#00c0b7"/>
    <path id="Caminho_4725" data-name="Caminho 4725" d="M2282.617,639.235a18.324,18.324,0,0,1-33.889-9.68v-6.8c0-.48.04-.95.08-1.431a18.021,18.021,0,0,0,4.739.651,18.332,18.332,0,0,0,16.65-10.691,18.318,18.318,0,0,0,15.14,10.611c.01.29.04.57.04.86v6.8A18.234,18.234,0,0,1,2282.617,639.235Z" fill="#daf1f3"/>
    <path id="Caminho_4726" data-name="Caminho 4726" d="M2271.808,605.074a18.311,18.311,0,0,1,13.529,16.821,18.318,18.318,0,0,1-15.14-10.611A18.154,18.154,0,0,0,2271.808,605.074Z" fill="#323954"/>
    <path id="Caminho_4727" data-name="Caminho 4727" d="M2271.808,605.074a18.22,18.22,0,0,1-23,16.25,18.3,18.3,0,0,1,18.25-16.889c.5,0,1,.04,1.489.08A18.47,18.47,0,0,1,2271.808,605.074Z" fill="#40566b"/>
    <path id="Caminho_4728" data-name="Caminho 4728" d="M2267.058,647.875a18.32,18.32,0,0,0,15.559-8.64,18.3,18.3,0,0,1,12.56,17.379v7.63h-56.25v-7.63a18.316,18.316,0,0,1,12.56-17.379A18.339,18.339,0,0,0,2267.058,647.875Z" fill="#e24c5d"/>
    <path id="Caminho_4729" data-name="Caminho 4729" d="M2263.427,628.954h-5.63a1.5,1.5,0,0,1,0-3h5.63a1.5,1.5,0,0,1,0,3Z" fill="#40566b"/>
    <path id="Caminho_4730" data-name="Caminho 4730" d="M2276.717,628.954h-5.63a1.5,1.5,0,0,1,0-3h5.63a1.5,1.5,0,0,1,0,3Z" fill="#40566b"/>
    <path id="Caminho_4731" data-name="Caminho 4731" d="M2266.978,640.574a8.454,8.454,0,0,1-4.318-1.2,1.5,1.5,0,1,1,1.534-2.578,5.452,5.452,0,0,0,2.784.778,5.375,5.375,0,0,0,4.057-1.853,1.5,1.5,0,1,1,2.264,1.967A8.367,8.367,0,0,1,2266.978,640.574Z" fill="#40566b"/>
  </g>
</svg>
