<svg id="Grupo_9853" data-name="Grupo 9853" xmlns="http://www.w3.org/2000/svg" width="22.435" height="22.463" viewBox="0 0 22.435 22.463">
  <g id="Grupo_7832" data-name="Grupo 7832" transform="translate(0 10.511)">
    <path id="Caminho_8058" data-name="Caminho 8058" d="M2402.312,814.927a5.967,5.967,0,1,1-5.968-5.967A5.967,5.967,0,0,1,2402.312,814.927Z" transform="translate(-2390.377 -808.96)" fill="#00c0b7"/>
    <path id="Caminho_8059" data-name="Caminho 8059" d="M2404.979,825.2a3.406,3.406,0,0,1,5.909.092c0,.045.006.091.006.14v1.1a2.963,2.963,0,0,1-2.963,2.963,2.96,2.96,0,0,1-2.965-2.963v-1.1C2404.967,825.351,2404.973,825.275,2404.979,825.2Z" transform="translate(-2401.963 -820.565)" fill="#daf1f3"/>
    <path id="Caminho_8060" data-name="Caminho 8060" d="M2399.41,845.527a2.966,2.966,0,0,0,5.034,0,2.968,2.968,0,0,1,2,2.365v0c-.012.012-.023.027-.035.039-.041.047-.084.095-.13.14-.022.027-.049.054-.074.078s-.074.076-.113.111-.088.087-.134.128c-.066.06-.132.117-.2.175s-.15.124-.228.181a5.91,5.91,0,0,1-.752.482c-.045.027-.09.049-.135.072s-.12.06-.179.088l-.013.006-.179.08c-.086.037-.173.07-.261.1-.029.013-.06.023-.091.033-.126.045-.251.085-.381.12-.047.014-.094.027-.142.039-.158.039-.319.074-.482.1-.051.01-.1.017-.152.025-.084.012-.169.023-.255.029s-.158.014-.239.019a.64.64,0,0,1-.064,0c-.093.006-.183.008-.276.008s-.187,0-.28-.008a.515.515,0,0,1-.058,0c-.087,0-.173-.01-.258-.019s-.171-.021-.255-.031l-.146-.025c-.053-.008-.107-.019-.16-.029l-.157-.033h0c-.08-.019-.158-.037-.237-.06s-.154-.043-.23-.068a6.025,6.025,0,0,1-2.736-1.812A2.993,2.993,0,0,1,2399.41,845.527Z" transform="translate(-2395.96 -837.997)" fill="#e24c5d"/>
    <path id="Caminho_8061" data-name="Caminho 8061" d="M2432.547,863.577c.045-.023.09-.045.136-.072A1.493,1.493,0,0,1,2432.547,863.577Z" transform="translate(-2423.865 -852.276)" fill="#ffa685"/>
    <path id="Caminho_8062" data-name="Caminho 8062" d="M2424.277,821.424a2.963,2.963,0,0,1-2.45-1.717,2.877,2.877,0,0,0,.261-1A2.958,2.958,0,0,1,2424.277,821.424Z" transform="translate(-2415.352 -816.698)" fill="#323954"/>
    <path id="Caminho_8063" data-name="Caminho 8063" d="M2408.22,818.207a2.961,2.961,0,0,1,.527.092,2.872,2.872,0,0,1-.262,1,2.011,2.011,0,1,1-.506-1.107C2408.062,818.2,2408.14,818.2,2408.22,818.207Z" transform="translate(-2402.011 -816.294)" fill="#40566b"/>
    <path id="Caminho_8064" data-name="Caminho 8064" d="M2412.211,835.687h-.908a.206.206,0,0,1,0-.412h.908a.206.206,0,0,1,0,.412Z" transform="translate(-2406.831 -829.857)" fill="#40566b"/>
    <path id="Caminho_8065" data-name="Caminho 8065" d="M2422.651,835.687h-.908a.206.206,0,0,1,0-.412h.908a.206.206,0,0,1,0,.412Z" transform="translate(-2415.122 -829.857)" fill="#40566b"/>
    <path id="Caminho_8066" data-name="Caminho 8066" d="M2416.289,843.331a1.332,1.332,0,0,1-.682-.19.206.206,0,1,1,.211-.354.922.922,0,0,0,1.153-.182.206.206,0,0,1,.312.269A1.311,1.311,0,0,1,2416.289,843.331Z" transform="translate(-2410.333 -835.622)" fill="#40566b"/>
  </g>
  <g id="Grupo_7833" data-name="Grupo 7833" transform="translate(10.501)">
    <path id="Caminho_8067" data-name="Caminho 8067" d="M2453.317,763.874a5.967,5.967,0,1,1-5.967-5.967A5.967,5.967,0,0,1,2453.317,763.874Z" transform="translate(-2441.382 -757.907)" fill="#00c0b7"/>
    <path id="Caminho_8068" data-name="Caminho 8068" d="M2455.984,774.146a3.406,3.406,0,0,1,5.909.093c0,.045.006.091.006.14v1.1a2.962,2.962,0,0,1-2.963,2.963,2.959,2.959,0,0,1-2.964-2.963v-1.1C2455.972,774.3,2455.978,774.222,2455.984,774.146Z" transform="translate(-2452.968 -769.513)" fill="#daf1f3"/>
    <path id="Caminho_8069" data-name="Caminho 8069" d="M2450.415,794.474a2.966,2.966,0,0,0,5.034,0,2.969,2.969,0,0,1,2,2.366v0c-.012.012-.023.027-.035.039-.041.047-.084.095-.13.14-.023.027-.049.053-.074.078s-.074.076-.113.111-.088.086-.134.128c-.066.06-.132.117-.2.175s-.15.124-.229.181a5.892,5.892,0,0,1-.752.482c-.045.027-.09.049-.136.072s-.119.06-.179.088l-.012.006-.179.08c-.087.037-.173.07-.262.1-.029.012-.06.023-.091.033-.125.045-.251.084-.381.119-.047.014-.095.027-.142.039-.159.039-.319.074-.482.1-.051.01-.1.016-.152.025-.084.012-.169.023-.255.029s-.158.014-.239.019c-.021,0-.043,0-.064,0-.093.006-.183.008-.276.008s-.187,0-.28-.008a.53.53,0,0,1-.057,0c-.087,0-.173-.01-.258-.019s-.171-.021-.255-.031l-.146-.025c-.054-.008-.107-.019-.161-.029l-.156-.033h0c-.08-.018-.158-.037-.237-.06s-.155-.043-.231-.068a6.024,6.024,0,0,1-2.736-1.812A2.992,2.992,0,0,1,2450.415,794.474Z" transform="translate(-2446.965 -786.944)" fill="#f6cf76"/>
    <path id="Caminho_8070" data-name="Caminho 8070" d="M2483.552,812.524c.045-.023.091-.045.136-.072A1.467,1.467,0,0,1,2483.552,812.524Z" transform="translate(-2474.87 -801.223)" fill="#ffa685"/>
    <path id="Caminho_8071" data-name="Caminho 8071" d="M2475.282,770.372a2.963,2.963,0,0,1-2.45-1.717,2.873,2.873,0,0,0,.261-1A2.957,2.957,0,0,1,2475.282,770.372Z" transform="translate(-2466.357 -765.646)" fill="#323954"/>
    <path id="Caminho_8072" data-name="Caminho 8072" d="M2459.225,767.154a2.975,2.975,0,0,1,.527.093,2.878,2.878,0,0,1-.262,1,2.011,2.011,0,1,1-.506-1.108C2459.066,767.142,2459.145,767.148,2459.225,767.154Z" transform="translate(-2453.016 -765.241)" fill="#40566b"/>
    <path id="Caminho_8073" data-name="Caminho 8073" d="M2463.216,784.634h-.908a.206.206,0,0,1,0-.412h.908a.206.206,0,0,1,0,.412Z" transform="translate(-2457.836 -778.804)" fill="#40566b"/>
    <path id="Caminho_8074" data-name="Caminho 8074" d="M2473.656,784.634h-.908a.206.206,0,0,1,0-.412h.908a.206.206,0,0,1,0,.412Z" transform="translate(-2466.127 -778.804)" fill="#40566b"/>
    <path id="Caminho_8075" data-name="Caminho 8075" d="M2467.294,792.278a1.333,1.333,0,0,1-.682-.19.206.206,0,1,1,.211-.354.922.922,0,0,0,1.153-.182.206.206,0,0,1,.312.269A1.31,1.31,0,0,1,2467.294,792.278Z" transform="translate(-2461.338 -784.569)" fill="#40566b"/>
  </g>
  <g id="Grupo_7835" data-name="Grupo 7835" transform="translate(4.135 2.866)">
    <path id="Caminho_8076" data-name="Caminho 8076" d="M2414.665,777.017h-.617v-3.185a2.006,2.006,0,0,1,2-2h2.331v.618h-2.331a1.388,1.388,0,0,0-1.386,1.386Z" transform="translate(-2413.309 -771.828)" fill="#00c0b7"/>
    <g id="Grupo_7834" data-name="Grupo 7834" transform="translate(0 3.995)">
      <path id="Caminho_8077" data-name="Caminho 8077" d="M2410.461,791.235l1.047,1.048,1.047-1.048v.889l-1.047,1.047-1.047-1.047Z" transform="translate(-2410.461 -791.235)" fill="#00c0b7"/>
    </g>
  </g>
  <g id="Grupo_7837" data-name="Grupo 7837" transform="translate(13.234 13.656)">
    <path id="Caminho_8078" data-name="Caminho 8078" d="M2456.988,833.036h-2.331v-.618h2.331a1.388,1.388,0,0,0,1.386-1.386v-3.184h.617v3.184A2.006,2.006,0,0,1,2456.988,833.036Z" transform="translate(-2454.657 -827.105)" fill="#00c0b7"/>
    <g id="Grupo_7836" data-name="Grupo 7836" transform="translate(2.979)">
      <path id="Caminho_8079" data-name="Caminho 8079" d="M2471.221,826.175l-1.047-1.048-1.047,1.048v-.889l1.047-1.047,1.047,1.047Z" transform="translate(-2469.127 -824.239)" fill="#00c0b7"/>
    </g>
  </g>
</svg>
