<svg xmlns="http://www.w3.org/2000/svg" width="124.561" height="106.665" viewBox="0 0 124.561 106.665">
  <g id="Grupo_12505" data-name="Grupo 12505" transform="translate(-1744.587 -3926.384)">
    <path id="Caminho_3647" data-name="Caminho 3647" d="M3234.245,1741.911a13.407,13.407,0,0,1,8.32,7.571,19.68,19.68,0,0,0-6.79,9.379h-33.261v-4.17a13.391,13.391,0,0,1,9.371-12.78,13.344,13.344,0,0,1-2.21-7.36v-5.3a13.39,13.39,0,1,1,26.78,0v5.3A13.263,13.263,0,0,1,3234.245,1741.911Z" transform="translate(-1457.927 2236.967)" fill="#00c0b7"/>
    <path id="Caminho_3648" data-name="Caminho 3648" d="M3327.075,1754.691v4.17H3293.8a19.868,19.868,0,0,0-6.79-9.39,13.42,13.42,0,0,1,8.321-7.56,13.344,13.344,0,0,1-2.21-7.36v-5.3a13.39,13.39,0,1,1,26.78,0v5.3a13.263,13.263,0,0,1-2.21,7.36A13.386,13.386,0,0,1,3327.075,1754.691Z" transform="translate(-1457.927 2236.967)" fill="#00c0b7"/>
    <path id="Caminho_3649" data-name="Caminho 3649" d="M3294.845,1765.191v6.15h-60.56v-6.15a19.713,19.713,0,0,1,13.53-18.709,19.745,19.745,0,0,0,33.51,0,19.428,19.428,0,0,1,5.689,2.989v.011a19.971,19.971,0,0,1,3.181,3.009,19.472,19.472,0,0,1,3.609,6.37A19.717,19.717,0,0,1,3294.845,1765.191Z" transform="translate(-1457.927 2236.967)" fill="#e24c5d"/>
    <path id="Caminho_3650" data-name="Caminho 3650" d="M3244.915,1727.2a19.635,19.635,0,0,0,23.03-10.81,19.728,19.728,0,0,0,16.31,11.42c.009.31.049.62.049.94v7.311a19.734,19.734,0,0,1-39.469,0v-7.311C3244.835,1728.221,3244.875,1727.711,3244.915,1727.2Z" transform="translate(-1457.927 2236.967)" fill="#daf1f3"/>
    <path id="Caminho_3651" data-name="Caminho 3651" d="M3269.684,1709.711a19.721,19.721,0,0,1,14.571,18.1,19.728,19.728,0,0,1-16.31-11.42A19.648,19.648,0,0,0,3269.684,1709.711Z" transform="translate(-1457.927 2236.967)" fill="#323954"/>
    <path id="Caminho_3652" data-name="Caminho 3652" d="M3266.184,1709.1a19.252,19.252,0,0,1,3.5.61,19.662,19.662,0,0,1-24.769,17.49,19.718,19.718,0,0,1,19.65-18.18C3265.115,1709.021,3265.645,1709.051,3266.184,1709.1Z" transform="translate(-1457.927 2236.967)" fill="#40566b"/>
    <rect id="Ret창ngulo_1823" data-name="Ret창ngulo 1823" width="6.05" height="3" transform="translate(1796.678 3969.268)" fill="#40566b"/>
    <rect id="Ret창ngulo_1824" data-name="Ret창ngulo 1824" width="6.05" height="3" transform="translate(1810.988 3969.268)" fill="#40566b"/>
    <path id="Caminho_3653" data-name="Caminho 3653" d="M3264.485,1747.812a8.886,8.886,0,0,1-4.608-1.288l1.556-2.565a5.9,5.9,0,0,0,7.511-1.183l2.262,1.97A8.919,8.919,0,0,1,3264.485,1747.812Z" transform="translate(-1457.927 2236.967)" fill="#40566b"/>
    <g id="Grupo_567" data-name="Grupo 567" transform="translate(-1457.927 2236.967)">
      <path id="Caminho_3654" data-name="Caminho 3654" d="M3264.514,1796.082a53.06,53.06,0,0,1-45.334-25.224l2.548-1.584a50.353,50.353,0,0,0,87.046-2.532l2.635,1.432A53.335,53.335,0,0,1,3264.514,1796.082Z" fill="#00c0b7"/>
      <g id="Grupo_566" data-name="Grupo 566">
        <path id="Caminho_3655" data-name="Caminho 3655" d="M3226.409,1772.088l-5.578-1.422-1.418,5.578-1.765-2.97,1.42-5.576,5.576,1.42Z" fill="#00c0b7"/>
      </g>
    </g>
    <g id="Grupo_569" data-name="Grupo 569" transform="translate(-1457.927 2236.967)">
      <path id="Caminho_3656" data-name="Caminho 3656" d="M3226.713,1709.517l-2.253-1.982a53.334,53.334,0,0,1,78.191-2.068l-2.146,2.1a50.331,50.331,0,0,0-73.792,1.952Z" fill="#00c0b7"/>
      <g id="Grupo_568" data-name="Grupo 568">
        <path id="Caminho_3657" data-name="Caminho 3657" d="M3295.276,1705.984l5.755.072.068-5.755,2.413,2.473-.07,5.753-5.754-.07Z" fill="#00c0b7"/>
      </g>
    </g>
  </g>
</svg>
